<svg width="124" height="24" viewBox="0 0 124 24" fill="none" xmlns="http://www.w3.org/2000/svg">
<g clip-path="url(#clip0_71_69032)">
<circle cx="24.509" cy="1.82513" r="1.63397" fill="#9E0003"/>
<circle cx="21.2433" cy="1.82513" r="1.63397" fill="#9E0003"/>
<circle cx="27.7785" cy="1.82513" r="1.63397" fill="#9E0003"/>
<circle cx="21.2433" cy="22.3665" r="1.63397" fill="#9E0003"/>
<circle cx="27.7785" cy="22.3665" r="1.63397" fill="#9E0003"/>
<circle cx="24.509" cy="6.96026" r="1.63397" fill="#9E0003"/>
<circle cx="24.509" cy="12.0962" r="1.63397" fill="#9E0003"/>
<circle cx="24.509" cy="17.2314" r="1.63397" fill="#9E0003"/>
<circle cx="24.509" cy="22.3665" r="1.63397" fill="#9E0003"/>
<circle cx="8.17303" cy="1.82513" r="1.63397" fill="#9E0003"/>
<circle cx="4.9035" cy="6.91412" r="1.63397" fill="#9E0003"/>
<circle cx="11.4387" cy="6.91412" r="1.63397" fill="#9E0003"/>
<circle cx="14.7062" cy="12.0501" r="1.63397" fill="#9E0003"/>
<circle cx="1.63397" cy="12.0501" r="1.63397" fill="#9E0003"/>
<circle cx="1.63397" cy="17.1852" r="1.63397" fill="#9E0003"/>
<circle cx="1.63397" cy="22.3205" r="1.63397" fill="#9E0003"/>
<circle cx="4.9035" cy="17.1852" r="1.63397" fill="#9E0003"/>
<circle cx="8.17303" cy="17.1852" r="1.63397" fill="#9E0003"/>
<circle cx="11.4387" cy="17.1852" r="1.63397" fill="#9E0003"/>
<circle cx="14.7062" cy="17.1852" r="1.63397" fill="#9E0003"/>
<circle cx="14.7062" cy="22.3205" r="1.63397" fill="#9E0003"/>
<circle cx="50.5148" cy="1.82489" r="1.63397" fill="#9E0003"/>
<circle cx="50.5148" cy="22.3663" r="1.63397" fill="#9E0003"/>
<circle cx="47.2472" cy="1.82489" r="1.63397" fill="#9E0003"/>
<circle cx="47.2472" cy="22.3663" r="1.63397" fill="#9E0003"/>
<circle cx="53.7824" cy="1.82489" r="1.63397" fill="#9E0003"/>
<circle cx="53.7824" cy="22.3663" r="1.63397" fill="#9E0003"/>
<circle cx="57.0519" cy="6.96002" r="1.63397" fill="#9E0003"/>
<circle cx="43.9797" cy="6.96002" r="1.63397" fill="#9E0003"/>
<circle cx="43.9797" cy="12.096" r="1.63397" fill="#9E0003"/>
<circle cx="43.9797" cy="17.2311" r="1.63397" fill="#9E0003"/>
<circle cx="57.0519" cy="17.2311" r="1.63397" fill="#9E0003"/>
<circle cx="69.9152" cy="1.82489" r="1.63397" fill="#9E0003"/>
<circle cx="69.9152" cy="12.096" r="1.63397" fill="#9E0003"/>
<circle cx="66.6476" cy="1.82489" r="1.63397" fill="#9E0003"/>
<circle cx="66.6476" cy="12.096" r="1.63397" fill="#9E0003"/>
<circle cx="73.1828" cy="1.82489" r="1.63397" fill="#9E0003"/>
<circle cx="73.1828" cy="12.096" r="1.63397" fill="#9E0003"/>
<circle cx="76.4504" cy="22.3663" r="1.63397" fill="#9E0003"/>
<circle cx="76.4523" cy="6.96002" r="1.63397" fill="#9E0003"/>
<circle cx="63.3801" cy="6.96002" r="1.63397" fill="#9E0003"/>
<circle cx="63.3801" cy="1.82489" r="1.63397" fill="#9E0003"/>
<circle cx="63.3801" cy="12.096" r="1.63397" fill="#9E0003"/>
<circle cx="63.3801" cy="17.2311" r="1.63397" fill="#9E0003"/>
<circle cx="63.3801" cy="22.1296" r="1.63397" fill="#9E0003"/>
<circle cx="73.1828" cy="17.2311" r="1.63397" fill="#9E0003"/>
<circle cx="89.3172" cy="22.1293" r="1.63397" transform="rotate(-180 89.3172 22.1293)" fill="#9E0003"/>
<circle cx="92.5848" cy="17.0403" r="1.63397" transform="rotate(-180 92.5848 17.0403)" fill="#9E0003"/>
<circle cx="86.0496" cy="17.0403" r="1.63397" transform="rotate(-180 86.0496 17.0403)" fill="#9E0003"/>
<circle cx="82.7821" cy="11.9044" r="1.63397" transform="rotate(-180 82.7821 11.9044)" fill="#9E0003"/>
<circle cx="95.8524" cy="11.9044" r="1.63397" transform="rotate(-180 95.8524 11.9044)" fill="#9E0003"/>
<circle cx="95.8524" cy="6.76923" r="1.63397" transform="rotate(-180 95.8524 6.76923)" fill="#9E0003"/>
<circle cx="95.8524" cy="1.63398" r="1.63397" transform="rotate(-180 95.8524 1.63398)" fill="#9E0003"/>
<circle cx="82.7821" cy="6.76923" r="1.63397" transform="rotate(-180 82.7821 6.76923)" fill="#9E0003"/>
<circle cx="82.7821" cy="1.63398" r="1.63397" transform="rotate(-180 82.7821 1.63398)" fill="#9E0003"/>
<circle cx="108.714" cy="11.9044" r="1.63397" fill="#9E0003"/>
<circle cx="102.179" cy="6.7691" r="1.63397" fill="#9E0003"/>
<circle cx="105.446" cy="6.7691" r="1.63397" fill="#9E0003"/>
<circle cx="102.179" cy="1.63397" r="1.63397" fill="#9E0003"/>
<circle cx="102.179" cy="11.9044" r="1.63397" fill="#9E0003"/>
<circle cx="102.179" cy="17.0402" r="1.63397" fill="#9E0003"/>
<circle cx="102.179" cy="21.9388" r="1.63397" fill="#9E0003"/>
<circle cx="111.982" cy="17.0402" r="1.63397" fill="#9E0003"/>
<circle cx="115.249" cy="6.7691" r="1.63397" fill="#9E0003"/>
<circle cx="115.249" cy="1.63397" r="1.63397" fill="#9E0003"/>
<circle cx="115.249" cy="11.9044" r="1.63397" fill="#9E0003"/>
<circle cx="115.249" cy="17.0402" r="1.63397" fill="#9E0003"/>
<circle cx="115.249" cy="21.9387" r="1.63397" fill="#9E0003"/>
<circle cx="122.075" cy="21.9387" r="1.63397" fill="#9E0003"/>
</g>
<defs>
<clipPath id="clip0_71_69032">
<rect width="123.709" height="24.0006" fill="white"/>
</clipPath>
</defs>
</svg>
