<svg width="50" height="80" viewBox="0 0 50 80" fill="none" xmlns="http://www.w3.org/2000/svg">
<g clip-path="url(#clip0_71_68250)">
<circle cx="12.6323" cy="45.1215" r="2.52679" fill="#9E0003"/>
<circle cx="12.6323" cy="76.8871" r="2.52679" fill="#9E0003"/>
<circle cx="7.57953" cy="45.1215" r="2.52679" fill="#9E0003"/>
<circle cx="7.57953" cy="76.8871" r="2.52679" fill="#9E0003"/>
<circle cx="17.687" cy="45.1215" r="2.52679" fill="#9E0003"/>
<circle cx="17.687" cy="76.8871" r="2.52679" fill="#9E0003"/>
<circle cx="22.7416" cy="53.0629" r="2.52679" fill="#9E0003"/>
<circle cx="2.52679" cy="53.0629" r="2.52679" fill="#9E0003"/>
<circle cx="2.52679" cy="61.0043" r="2.52679" fill="#9E0003"/>
<circle cx="2.52679" cy="68.9457" r="2.52679" fill="#9E0003"/>
<circle cx="22.7416" cy="68.9457" r="2.52679" fill="#9E0003"/>
<circle cx="36.4565" cy="76.8871" r="2.52679" fill="#9E0003"/>
<circle cx="12.6342" cy="2.52679" r="2.52679" fill="#9E0003"/>
<circle cx="41.5112" cy="2.52679" r="2.52679" fill="#9E0003"/>
<circle cx="36.4584" cy="2.52679" r="2.52679" fill="#9E0003"/>
<circle cx="46.5659" cy="2.52679" r="2.52679" fill="#9E0003"/>
<circle cx="36.4584" cy="34.2924" r="2.52679" fill="#9E0003"/>
<circle cx="46.5659" cy="34.2924" r="2.52679" fill="#9E0003"/>
<circle cx="41.5112" cy="10.4682" r="2.52679" fill="#9E0003"/>
<circle cx="41.5112" cy="18.4096" r="2.52679" fill="#9E0003"/>
<circle cx="41.5112" cy="26.351" r="2.52679" fill="#9E0003"/>
<circle cx="41.5112" cy="34.2924" r="2.52679" fill="#9E0003"/>
<circle cx="7.57953" cy="10.3969" r="2.52679" fill="#9E0003"/>
<circle cx="17.687" cy="10.3969" r="2.52679" fill="#9E0003"/>
<circle cx="22.7416" cy="18.3383" r="2.52679" fill="#9E0003"/>
<circle cx="2.52679" cy="18.3383" r="2.52679" fill="#9E0003"/>
<circle cx="2.52679" cy="26.2797" r="2.52679" fill="#9E0003"/>
<circle cx="2.52679" cy="34.2211" r="2.52679" fill="#9E0003"/>
<circle cx="7.57953" cy="26.2797" r="2.52679" fill="#9E0003"/>
<circle cx="12.6323" cy="26.2797" r="2.52679" fill="#9E0003"/>
<circle cx="17.687" cy="26.2797" r="2.52679" fill="#9E0003"/>
<circle cx="22.7416" cy="26.2797" r="2.52679" fill="#9E0003"/>
<circle cx="22.7416" cy="34.2211" r="2.52679" fill="#9E0003"/>
</g>
<defs>
<clipPath id="clip0_71_68250">
<rect width="49.0927" height="79.4139" fill="white"/>
</clipPath>
</defs>
</svg>
