<svg width="24" height="24" viewBox="0 0 24 24" fill="none" xmlns="http://www.w3.org/2000/svg">
<path d="M21.2501 14C21.2501 13.5858 21.5859 13.25 22.0001 13.25C22.4143 13.25 22.7501 13.5858 22.7501 14C22.7501 16.3206 21.8285 18.5466 20.1876 20.1875C18.5466 21.8284 16.3207 22.75 14.0001 22.75C13.5859 22.75 13.2501 22.4142 13.2501 22C13.2501 21.5858 13.5859 21.25 14.0001 21.25C15.9229 21.25 17.7674 20.4866 19.127 19.127C20.4867 17.7673 21.2501 15.9228 21.2501 14Z" fill="black"/>
<path d="M17.2501 11V10C17.2501 9.66848 17.1183 9.35063 16.8839 9.11621C16.6494 8.88179 16.3316 8.75 16.0001 8.75C15.6686 8.75 15.3507 8.88179 15.1163 9.11621C14.8819 9.35063 14.7501 9.66848 14.7501 10C14.7501 10.4142 14.4143 10.75 14.0001 10.75C13.5859 10.75 13.2501 10.4142 13.2501 10C13.2501 9.27065 13.54 8.57139 14.0557 8.05566C14.5715 7.53994 15.2707 7.25 16.0001 7.25C16.7294 7.25 17.4287 7.53994 17.9444 8.05566C18.4601 8.57139 18.7501 9.27065 18.7501 10V11C18.7501 11.4142 18.4143 11.75 18.0001 11.75C17.5859 11.75 17.2501 11.4142 17.2501 11Z" fill="black"/>
<path d="M13.2501 10V9C13.2501 8.66848 13.1183 8.35063 12.8839 8.11621C12.6494 7.88179 12.3316 7.75 12.0001 7.75C11.6686 7.75 11.3507 7.88179 11.1163 8.11621C10.8819 8.35063 10.7501 8.66848 10.7501 9V10C10.7501 10.4142 10.4143 10.75 10.0001 10.75C9.58586 10.75 9.25008 10.4142 9.25008 10V9C9.25008 8.27065 9.54001 7.57139 10.0557 7.05566C10.5715 6.53994 11.2707 6.25 12.0001 6.25C12.7294 6.25 13.4287 6.53994 13.9444 7.05566C14.4601 7.57139 14.7501 8.27065 14.7501 9V10C14.7501 10.4142 14.4143 10.75 14.0001 10.75C13.5859 10.75 13.2501 10.4142 13.2501 10Z" fill="black"/>
<path d="M9.25008 9.5V4C9.25008 3.66848 9.11828 3.35063 8.88386 3.11621C8.64944 2.88179 8.3316 2.75 8.00008 2.75C7.66855 2.75 7.35071 2.88179 7.11629 3.11621C6.88187 3.35063 6.75008 3.66848 6.75008 4V14C6.75008 14.4142 6.41429 14.75 6.00008 14.75C5.58586 14.75 5.25008 14.4142 5.25008 14V4C5.25008 3.27065 5.54001 2.57139 6.05574 2.05566C6.57146 1.53994 7.27073 1.25 8.00008 1.25C8.72942 1.25 9.42869 1.53994 9.94441 2.05566C10.4601 2.57139 10.7501 3.27065 10.7501 4V9.5C10.7501 9.91421 10.4143 10.25 10.0001 10.25C9.58586 10.25 9.25008 9.91421 9.25008 9.5Z" fill="black"/>
<path d="M3.832 11.9707C4.44935 11.9567 5.05047 12.1508 5.54099 12.5176L5.74509 12.6855L5.77048 12.71L7.53025 14.4697C7.82314 14.7626 7.82314 15.2374 7.53025 15.5303C7.23735 15.8231 6.76258 15.8231 6.4697 15.5303L4.72946 13.79C4.49285 13.5775 4.18433 13.4625 3.86618 13.4697C3.54556 13.477 3.23993 13.6077 3.01267 13.834C2.78541 14.0604 2.65301 14.3658 2.6445 14.6865C2.63618 15.0023 2.74841 15.3092 2.957 15.5459L6.53806 19.1279C7.89003 20.4707 9.40179 21.25 12 21.25H14.0001C15.9229 21.25 17.7674 20.4866 19.127 19.127C20.4867 17.7673 21.2501 15.9228 21.2501 14L21.25 11C21.25 10.6685 21.1182 10.3506 20.8838 10.1162C20.6493 9.88182 20.3315 9.75 20 9.75C19.6685 9.75003 19.3506 9.88181 19.1162 10.1162C18.8818 10.3506 18.7501 10.6685 18.7501 11C18.7501 11.4142 18.4143 11.75 18.0001 11.75C17.5859 11.75 17.2501 11.4142 17.2501 11C17.2501 10.2707 17.5399 9.57138 18.0556 9.05566C18.5713 8.53996 19.2707 8.25003 20 8.25C20.7293 8.25 21.4286 8.53997 21.9443 9.05566C22.46 9.57139 22.75 10.2707 22.75 11L22.7501 14C22.7501 16.3206 21.8285 18.5466 20.1876 20.1875C18.5466 21.8284 16.3207 22.75 14.0001 22.75H12C8.99847 22.75 7.10933 21.8093 5.48142 20.1924L1.87986 16.5898C1.87091 16.5809 1.86197 16.5719 1.85349 16.5625C1.38048 16.0386 1.12695 15.353 1.14548 14.6475C1.16409 13.9418 1.45308 13.2698 1.9531 12.7715C2.45315 12.2732 3.12626 11.9868 3.832 11.9707Z" fill="black"/>
</svg>
