<svg width="24" height="24" viewBox="0 0 24 24" fill="none" xmlns="http://www.w3.org/2000/svg">
<path d="M5.25 18.5C5.25 18.0858 5.58579 17.75 6 17.75C6.41421 17.75 6.75 18.0858 6.75 18.5C6.75 18.8611 6.82078 19.2191 6.95898 19.5527C7.09718 19.8863 7.30035 20.189 7.55566 20.4443C7.81098 20.6997 8.11369 20.9028 8.44727 21.041C8.78091 21.1792 9.13887 21.25 9.5 21.25C9.86113 21.25 10.2191 21.1792 10.5527 21.041C10.8863 20.9028 11.189 20.6997 11.4443 20.4443C11.6997 20.189 11.9028 19.8863 12.041 19.5527C12.1792 19.2191 12.25 18.8611 12.25 18.5C12.25 17.2808 12.7182 16.3637 13.3682 15.6055C13.9845 14.8864 14.8149 14.261 15.5195 13.6738C16.256 13.0601 16.9284 12.4354 17.4248 11.6357C17.912 10.8509 18.25 9.86336 18.25 8.5C18.25 6.97501 17.6438 5.5129 16.5654 4.43457C15.4871 3.35624 14.025 2.75 12.5 2.75C10.975 2.75 9.5129 3.35624 8.43457 4.43457C7.35624 5.5129 6.75 6.97501 6.75 8.5C6.75 8.91421 6.41421 9.25 6 9.25C5.58579 9.25 5.25 8.91421 5.25 8.5C5.25 6.57718 6.01341 4.73269 7.37305 3.37305C8.73269 2.01341 10.5772 1.25 12.5 1.25C14.4228 1.25 16.2673 2.01341 17.627 3.37305C18.9866 4.73269 19.75 6.57718 19.75 8.5C19.75 10.1365 19.338 11.3992 18.7002 12.4268C18.0717 13.4394 17.2439 14.19 16.4805 14.8262C15.6852 15.4889 15.0154 15.9887 14.5068 16.582C14.0319 17.1362 13.75 17.7192 13.75 18.5C13.75 19.058 13.6402 19.6105 13.4268 20.126C13.2132 20.6416 12.8995 21.1102 12.5049 21.5049C12.1102 21.8995 11.6416 22.2132 11.126 22.4268C10.6105 22.6402 10.058 22.75 9.5 22.75C8.94205 22.75 8.38952 22.6402 7.87402 22.4268C7.35839 22.2132 6.88977 21.8995 6.49512 21.5049C6.10047 21.1102 5.78682 20.6416 5.57324 20.126C5.35978 19.6105 5.25 19.058 5.25 18.5Z" fill="black"/>
<path d="M14.25 8.5C14.25 8.03587 14.0655 7.59088 13.7373 7.2627C13.4091 6.93451 12.9641 6.75 12.5 6.75C12.0359 6.75 11.5909 6.93451 11.2627 7.2627C10.9345 7.59088 10.75 8.03587 10.75 8.5V8.85645C11.1973 8.98337 11.6097 9.22103 11.9443 9.55566C12.4601 10.0714 12.75 10.7707 12.75 11.5C12.75 12.2293 12.4601 12.9286 11.9443 13.4443C11.4286 13.9601 10.7293 14.25 10 14.25C9.58579 14.25 9.25 13.9142 9.25 13.5C9.25 13.0858 9.58579 12.75 10 12.75C10.3315 12.75 10.6494 12.6182 10.8838 12.3838C11.1182 12.1494 11.25 11.8315 11.25 11.5C11.25 11.1685 11.1182 10.8506 10.8838 10.6162C10.6494 10.3818 10.3315 10.25 10 10.25C9.58579 10.25 9.25 9.91421 9.25 9.5V8.5C9.25 7.63805 9.59266 6.81164 10.2021 6.20215C10.8116 5.59266 11.638 5.25 12.5 5.25C13.362 5.25 14.1884 5.59266 14.7979 6.20215C15.4073 6.81164 15.75 7.63805 15.75 8.5C15.75 8.91421 15.4142 9.25 15 9.25C14.5858 9.25 14.25 8.91421 14.25 8.5Z" fill="black"/>
</svg>
