<svg width="24" height="24" viewBox="0 0 24 24" fill="none" xmlns="http://www.w3.org/2000/svg">
<path d="M9.75977 8C10.174 8 10.5098 8.33579 10.5098 8.75C10.5098 9.16421 10.174 9.5 9.75977 9.5H9.75C9.33579 9.5 9 9.16421 9 8.75C9 8.33579 9.33579 8 9.75 8H9.75977Z" fill="black"/>
<path d="M11.7598 12C12.174 12 12.5098 12.3358 12.5098 12.75C12.5098 13.1642 12.174 13.5 11.7598 13.5H11.75C11.3358 13.5 11 13.1642 11 12.75C11 12.3358 11.3358 12 11.75 12H11.7598Z" fill="black"/>
<path d="M13.7598 8C14.174 8 14.5098 8.33579 14.5098 8.75C14.5098 9.16421 14.174 9.5 13.7598 9.5H13.75C13.3358 9.5 13 9.16421 13 8.75C13 8.33579 13.3358 8 13.75 8H13.7598Z" fill="black"/>
<path d="M15.7598 12C16.174 12 16.5098 12.3358 16.5098 12.75C16.5098 13.1642 16.174 13.5 15.7598 13.5H15.75C15.3358 13.5 15 13.1642 15 12.75C15 12.3358 15.3358 12 15.75 12H15.7598Z" fill="black"/>
<path d="M17.7598 8C18.174 8 18.5098 8.33579 18.5098 8.75C18.5098 9.16421 18.174 9.5 17.7598 9.5H17.75C17.3358 9.5 17 9.16421 17 8.75C17 8.33579 17.3358 8 17.75 8H17.7598Z" fill="black"/>
<path d="M5.75977 8C6.17398 8 6.50977 8.33579 6.50977 8.75C6.50977 9.16421 6.17398 9.5 5.75977 9.5H5.75C5.33579 9.5 5 9.16421 5 8.75C5 8.33579 5.33579 8 5.75 8H5.75977Z" fill="black"/>
<path d="M7.75977 12C8.17398 12 8.50977 12.3358 8.50977 12.75C8.50977 13.1642 8.17398 13.5 7.75977 13.5H7.75C7.33579 13.5 7 13.1642 7 12.75C7 12.3358 7.33579 12 7.75 12H7.75977Z" fill="black"/>
<path d="M16.7539 16H6.75391" stroke="black" stroke-linecap="round" stroke-linejoin="round"/>
<rect x="1.5" y="3.5" width="21" height="17" rx="1.5" stroke="black"/>
</svg>
