<svg width="24" height="24" viewBox="0 0 24 24" fill="none" xmlns="http://www.w3.org/2000/svg">
<path d="M15.25 17V4C15.25 3.66848 15.1182 3.35063 14.8838 3.11621C14.6494 2.88179 14.3315 2.75 14 2.75C13.6685 2.75 13.3506 2.88179 13.1162 3.11621C12.8818 3.35063 12.75 3.66848 12.75 4V20C12.75 20.7293 12.4601 21.4286 11.9443 21.9443C11.4286 22.4601 10.7293 22.75 10 22.75C9.27065 22.75 8.57139 22.4601 8.05566 21.9443C7.53994 21.4286 7.25 20.7293 7.25 20V7C7.25 6.66848 7.11821 6.35063 6.88379 6.11621C6.64937 5.88179 6.33152 5.75 6 5.75C5.66848 5.75 5.35063 5.88179 5.11621 6.11621C4.88179 6.35063 4.75 6.66848 4.75 7V11C4.75 11.7293 4.46006 12.4286 3.94434 12.9443C3.42861 13.4601 2.72935 13.75 2 13.75C1.58579 13.75 1.25 13.4142 1.25 13C1.25 12.5858 1.58579 12.25 2 12.25C2.33152 12.25 2.64937 12.1182 2.88379 11.8838C3.11821 11.6494 3.25 11.3315 3.25 11V7C3.25 6.27065 3.53994 5.57139 4.05566 5.05566C4.57139 4.53994 5.27065 4.25 6 4.25C6.72935 4.25 7.42861 4.53994 7.94434 5.05566C8.46006 5.57139 8.75 6.27065 8.75 7V20C8.75 20.3315 8.88179 20.6494 9.11621 20.8838C9.35063 21.1182 9.66848 21.25 10 21.25C10.3315 21.25 10.6494 21.1182 10.8838 20.8838C11.1182 20.6494 11.25 20.3315 11.25 20V4C11.25 3.27065 11.5399 2.57139 12.0557 2.05566C12.5714 1.53994 13.2707 1.25 14 1.25C14.7293 1.25 15.4286 1.53994 15.9443 2.05566C16.4601 2.57139 16.75 3.27065 16.75 4V17C16.75 17.3315 16.8818 17.6494 17.1162 17.8838C17.3506 18.1182 17.6685 18.25 18 18.25C18.3315 18.25 18.6494 18.1182 18.8838 17.8838C19.1182 17.6494 19.25 17.3315 19.25 17V13C19.25 12.2707 19.5399 11.5714 20.0557 11.0557C20.5714 10.5399 21.2707 10.25 22 10.25C22.4142 10.25 22.75 10.5858 22.75 11C22.75 11.4142 22.4142 11.75 22 11.75C21.6685 11.75 21.3506 11.8818 21.1162 12.1162C20.8818 12.3506 20.75 12.6685 20.75 13V17C20.75 17.7293 20.4601 18.4286 19.9443 18.9443C19.4286 19.4601 18.7293 19.75 18 19.75C17.2707 19.75 16.5714 19.4601 16.0557 18.9443C15.5399 18.4286 15.25 17.7293 15.25 17Z" fill="white"/>
</svg>
