<svg width="92" height="92" viewBox="0 0 92 92" fill="none" xmlns="http://www.w3.org/2000/svg">
<rect width="92" height="92" rx="7" fill="#CDCDCD"/>
<circle cx="33.6342" cy="30.5268" r="2.52679" fill="#9E0003"/>
<circle cx="62.5112" cy="30.5268" r="2.52679" fill="#9E0003"/>
<circle cx="57.4584" cy="30.5268" r="2.52679" fill="#9E0003"/>
<circle cx="67.5659" cy="30.5268" r="2.52679" fill="#9E0003"/>
<circle cx="57.4584" cy="62.2924" r="2.52679" fill="#9E0003"/>
<circle cx="67.5659" cy="62.2924" r="2.52679" fill="#9E0003"/>
<circle cx="62.5112" cy="38.4682" r="2.52679" fill="#9E0003"/>
<circle cx="62.5112" cy="46.4096" r="2.52679" fill="#9E0003"/>
<circle cx="62.5112" cy="54.351" r="2.52679" fill="#9E0003"/>
<circle cx="62.5112" cy="62.2924" r="2.52679" fill="#9E0003"/>
<circle cx="28.5795" cy="38.3969" r="2.52679" fill="#9E0003"/>
<circle cx="38.687" cy="38.3969" r="2.52679" fill="#9E0003"/>
<circle cx="43.7416" cy="46.3383" r="2.52679" fill="#9E0003"/>
<circle cx="23.5268" cy="46.3383" r="2.52679" fill="#9E0003"/>
<circle cx="23.5268" cy="54.2797" r="2.52679" fill="#9E0003"/>
<circle cx="23.5268" cy="62.2211" r="2.52679" fill="#9E0003"/>
<circle cx="28.5795" cy="54.2797" r="2.52679" fill="#9E0003"/>
<circle cx="33.6323" cy="54.2797" r="2.52679" fill="#9E0003"/>
<circle cx="38.687" cy="54.2797" r="2.52679" fill="#9E0003"/>
<circle cx="43.7416" cy="54.2797" r="2.52679" fill="#9E0003"/>
<circle cx="43.7416" cy="62.2211" r="2.52679" fill="#9E0003"/>
</svg>
